<svg width="32" height="32" viewBox="0 0 32 32" fill="none" xmlns="http://www.w3.org/2000/svg">
<g clip-path="url(#clip0_233_13471)">
<path d="M31.995 16.7991C31.995 14.109 30.3234 11.7845 27.8421 10.8704C27.9472 10.3018 27.9996 9.72471 27.9988 9.14649C27.9988 4.15787 23.9505 0.109619 18.9619 0.109619C16.0628 0.109619 13.3465 1.49387 11.6488 3.87062C10.813 3.21762 9.79438 2.87812 8.7235 2.87812C6.0855 2.87812 3.91775 5.01974 3.91775 7.68387C3.91775 8.25849 4.02225 8.83312 4.205 9.35549C1.69775 10.2174 0 12.6202 0 15.2842C0 17.9745 1.67162 20.3251 4.17887 21.2392C4.0745 21.7877 4.02225 22.3624 4.02225 22.963C4.02225 27.9255 8.0705 31.9739 13.033 31.9739C15.9583 31.9739 18.6485 30.5635 20.3461 28.2129C21.1819 28.8657 22.2266 29.2315 23.2975 29.2315C25.9355 29.2315 28.1033 27.0897 28.1033 24.4257C28.1033 23.8511 27.9988 23.2765 27.816 22.7541C30.271 21.8661 31.9949 19.4632 31.9949 16.7991H31.995Z" fill="white"/>
<path d="M12.5106 13.7955L19.641 17.0604L26.8496 10.7398C26.9547 10.2152 27.0072 9.68152 27.0062 9.14655C27.0062 4.70655 23.402 1.10217 18.9618 1.10217C16.2977 1.10217 13.8166 2.40805 12.3278 4.60192L11.1263 10.8182L12.5106 13.7955Z" fill="#F4BD19"/>
<path d="M5.11915 21.3437C5.01477 21.8661 4.96252 22.4146 4.96252 22.9631C4.96252 27.4031 8.5929 31.0336 13.033 31.0336C15.7233 31.0336 18.2045 29.7016 19.7193 27.5076L20.8946 21.2914L19.3014 18.2617L12.145 14.9969L5.11915 21.3437Z" fill="#3CBEB1"/>
<path d="M5.06703 8.98974L9.95116 10.139L11.048 4.57574C10.369 4.05336 9.55928 3.79224 8.69741 3.79224C6.58178 3.79224 4.83191 5.51599 4.83191 7.65774C4.83191 8.10174 4.91041 8.57186 5.06703 8.98974Z" fill="#E9478C"/>
<path d="M4.64906 10.165C2.45518 10.8703 0.940308 12.9859 0.940308 15.2843C0.940308 17.5305 2.32456 19.5417 4.41406 20.3252L11.2832 14.1089L10.0294 11.4189L4.64906 10.165Z" fill="#2C458F"/>
<path d="M20.973 27.4815C21.652 28.004 22.4618 28.2912 23.2975 28.2912C25.4131 28.2912 27.163 26.5675 27.163 24.4257C27.163 23.9556 27.0846 23.5115 26.928 23.0936L22.0439 21.9445L20.973 27.4815Z" fill="#95C63D"/>
<path d="M21.9656 20.6647L27.3459 21.9184C29.5398 21.1872 31.0547 19.0977 31.0547 16.7992C31.0547 14.5529 29.6704 12.568 27.5809 11.7584L20.5291 17.9223L21.9656 20.6647Z" fill="#176655"/>
</g>
<defs>
<clipPath id="clip0_233_13471">
<rect width="32" height="32" fill="white"/>
</clipPath>
</defs>
</svg>
