<svg width="32" height="32" viewBox="0 0 32 32" fill="none" xmlns="http://www.w3.org/2000/svg">
<path d="M16.147 1.78687C16.5151 2.32749 16.8464 2.89374 17.187 3.45249C17.5714 4.10374 18.0082 4.70687 18.3664 5.37187C18.7232 6.04187 19.1532 6.64562 19.5451 7.29436C19.972 8.03061 20.4582 8.73062 20.8639 9.47749C21.5082 10.5606 22.202 11.6119 22.8482 12.6937C23.237 13.4219 23.7164 14.0956 24.1301 14.8094C24.5289 15.5075 25.012 16.1456 25.3764 16.8637C26.1239 18.1119 26.9264 19.3269 27.6589 20.5856C28.372 21.8087 29.157 22.9856 29.8801 24.2025C29.3664 24.4319 28.872 24.7037 28.3551 24.9244C27.7714 25.1575 27.232 25.4825 26.6589 25.7419C25.5514 26.2594 24.477 26.8575 23.3532 27.3356C21.9664 28.0106 20.5864 28.7037 19.1989 29.3756C18.4389 29.6944 17.7201 30.0944 16.9714 30.4394C16.9701 24.9787 16.9601 19.5144 16.9764 14.0537C17.3782 14.7544 17.7601 15.4669 18.1764 16.1606C18.487 16.7775 18.8089 17.3869 19.1601 17.9825C19.6382 18.7794 20.0614 19.6075 20.5364 20.4075C20.7689 20.8519 20.9914 21.3019 21.247 21.7337C20.6489 22.0337 20.0932 22.3775 19.4782 22.6475C19.1464 22.7919 18.8264 22.9606 18.5082 23.1344C18.5039 23.7725 18.502 24.4119 18.5101 25.0506C19.7089 24.6006 20.8532 24.0037 22.0314 23.5006C22.712 23.2137 23.3601 22.8656 24.0514 22.6044C23.6364 21.9425 23.2151 21.2869 22.8401 20.6019C22.2732 19.7287 21.7564 18.8244 21.1832 17.9544C20.8082 17.3856 20.5089 16.7737 20.1382 16.2006C19.5464 15.2875 18.9814 14.3575 18.4139 13.4287C17.6682 12.1344 16.8351 10.9025 16.0701 9.62187C15.712 10.1769 15.3882 10.7525 15.0232 11.3037C14.2939 12.4506 13.6214 13.6287 12.9014 14.7806C12.432 15.5825 11.8964 16.3244 11.4589 17.1437C11.2282 17.5719 10.957 17.9687 10.6982 18.3787C10.2351 19.1175 9.79324 19.8694 9.32137 20.6025C8.95699 21.2637 8.55512 21.9006 8.15824 22.5419C8.53324 22.6669 8.88387 22.8219 9.23324 23.0056C10.1082 23.4344 11.0014 23.8225 11.8701 24.2625C12.4532 24.5244 13.0151 24.8344 13.617 25.0369C13.667 24.4056 13.6951 23.7744 13.7139 23.1419C13.4114 22.9675 13.102 22.8044 12.782 22.6637C12.1539 22.3837 11.5839 22.0475 10.9764 21.7306C11.807 20.1725 12.6782 18.6519 13.5514 17.1169C14.0651 16.0794 14.6701 15.0894 15.2364 14.0806C15.2264 14.9406 15.2489 15.7994 15.2382 16.6594C15.2089 21.2537 15.202 25.8469 15.157 30.4406C14.6501 30.1956 14.1439 29.9494 13.642 29.6956C12.792 29.3344 11.9614 28.9194 11.1382 28.5006C10.3989 28.1394 9.65012 27.8019 8.92137 27.4194C7.58387 26.8569 6.31637 26.1544 4.99699 25.5456C4.13012 25.0794 3.21012 24.7387 2.33887 24.2794C2.94012 23.2969 3.56699 22.3319 4.16512 21.3469C4.90137 20.0925 5.66824 18.8537 6.45012 17.6275C6.77887 17.1156 7.04137 16.5675 7.37699 16.0594C7.94887 15.1887 8.46699 14.2856 9.03012 13.4087C9.74387 12.1375 10.5564 10.9375 11.3051 9.68936C11.732 8.89686 12.2539 8.16249 12.7039 7.38187C13.0064 6.85749 13.3689 6.37187 13.6639 5.84374C14.0401 5.13874 14.482 4.46687 14.9132 3.79437C15.3214 3.12374 15.727 2.45062 16.147 1.78687Z" fill="#FE7139"/>
</svg>
